<svg width="600" height="698" viewBox="0 0 600 698" fill="none" xmlns="http://www.w3.org/2000/svg">
<g opacity="0.63">
<path d="M0.69873 176L300 350V399.5L0.69873 227V176Z" fill="#1400FF"/>
<path d="M0.69873 474L300 648V697.5L150.349 611.25L0.69873 525V474Z" fill="#1400FF"/>
<path d="M88.6987 326.5L300 450.5V598.5L88.6987 475.5V326.5Z" fill="#1400FF"/>
<path d="M599.301 176L449.651 263L300 350V399.5L449.651 313.25L599.301 227V176Z" fill="#0A0079"/>
<path d="M599.301 474L449.651 561L300 648V697.5L599.301 525V474Z" fill="#0A0079"/>
<path d="M511.301 326.5L300 450.5V598.5L511.301 475.5V326.5Z" fill="#0A0079"/>
<path d="M300 0.5L0.69873 176L300 350L449.651 263L599.301 176L300 0.5Z" fill="#3037EC"/>
</g>
</svg>
